Format                                   : MPEG-4
Format profile                           : Base Media / Version 2
Codec ID                                 : mp42
File size                                : 1.36 GiB
Duration                                 : 1h 34mn
Overall bit rate mode                    : Variable
Overall bit rate                         : 2 057 Kbps

Video
ID                                       : 1
Format                                   : AVC
Format/Info                              : Advanced Video Codec
Format profile                           : High@L4.0
Format settings, CABAC                   : Yes
Format settings, ReFrames                : 4 frames
Codec ID                                 : avc1
Codec ID/Info                            : Advanced Video Coding
Duration                                 : 1h 34mn
Bit rate mode                            : Variable
Bit rate                                 : 1 866 Kbps
Maximum bit rate                         : 8 894 Kbps
Width                                    : 1 920 pixels
Height                                   : 796 pixels
Display aspect ratio                     : 2.40:1
Frame rate mode                          : Constant
Frame rate                               : 23.976 fps
Color space                              : YUV
Chroma subsampling                       : 4:2:0
Bit depth                                : 8 bits
Scan type                                : Progressive
Bits/(Pixel*Frame)                       : 0.051
Stream size                              : 1.23 GiB (91%)
Language                                 : English

Audio
ID                                       : 2
Format                                   : AAC
Format/Info                              : Advanced Audio Codec
Format profile                           : LC
Codec ID                                 : 40
Duration                                 : 1h 34mn
Bit rate mode                            : Variable
Bit rate                                 : 186 Kbps
Maximum bit rate                         : 212 Kbps
Channel(s)                               : 6 channels
Channel positions                        : Front: L C R, Side: L R, LFE
Sampling rate                            : 48.0 KHz
Compression mode                         : Lossy
Stream size                              : 126 MiB (9%)
Title                                    : Dolby Digital 5.1-ch 48KHz
Language                                 : English
Subtitles                                : None

IMDB.  http://www.imdb.com/title/tt0938330/

Storyline.

Heather Mason and her father have been on the run, always one step ahead of dangerous forces that she doesn't fully understand, Now on the eve of her 18th birthday, plagued by horrific nightmares and the disappearance of her father, Heather discovers she's not who she thinks she is. The revelation leads her deeper into a demonic world that threatens to trap her forever.

Screens.  http://bayimg.com/DAMOpAAEk

          http://bayimg.com/EAmOaAAeK

          http://bayimg.com/eamobAaEk

          http://bayimg.com/EAMocAaek

Enjoy.